<svg width="166" height="142" viewBox="0 0 166 142" fill="none" xmlns="http://www.w3.org/2000/svg">
<path d="M80.9973 137.287L80.9989 137.288L118.19 139.158L118.201 139.159L152.1 140.194L152.114 140.195L152.126 140.195L152.127 140.195L152.127 140.195L152.128 140.195L152.142 140.196C152.157 140.197 152.181 140.197 152.216 140.198C152.284 140.2 152.39 140.201 152.529 140.198C152.807 140.194 153.215 140.175 153.715 140.12C154.718 140.009 156.073 139.75 157.488 139.167C160.276 138.017 163.351 135.598 164.459 130.334L164.46 130.331C164.462 130.323 164.464 130.309 164.468 130.289C164.474 130.249 164.485 130.186 164.497 130.101C164.521 129.931 164.553 129.677 164.578 129.352C164.629 128.701 164.654 127.777 164.552 126.7C164.346 124.541 163.63 121.821 161.624 119.434L161.588 119.391L161.556 119.344C153.543 107.543 147.236 98.3394 137.934 84.9687C126.689 68.8049 113.247 49.2995 102.615 33.8358C97.2998 26.1038 92.6868 19.3819 89.4028 14.593C87.7608 12.1985 86.451 10.2873 85.5517 8.9747L84.5203 7.46911L84.2539 7.08007L84.2123 7.01933C79.8305 2.39555 75.1931 1.18901 71.2572 1.84889C67.2518 2.52039 63.8331 5.14583 62.0118 8.41635L3.13376 114.142C-0.307839 120.322 2.02289 131.213 13.5466 133.992L80.9973 137.287Z" stroke="url(#paint0_linear_215_2973)" stroke-width="2.20895"/>
<defs>
<linearGradient id="paint0_linear_215_2973" x1="168.784" y1="144.492" x2="67.7346" y2="72.8414" gradientUnits="userSpaceOnUse">
<stop stop-color="#EFC653"/>
<stop offset="1" stop-color="#897130" stop-opacity="0"/>
</linearGradient>
</defs>
</svg>
