<svg width="287" height="245" viewBox="0 0 287 245" fill="none" xmlns="http://www.w3.org/2000/svg">
<path d="M139.67 238.26L139.671 238.26L204.221 241.507L204.242 241.508L263.098 243.306L263.112 243.307L263.125 243.307L263.125 243.307L263.126 243.307L263.131 243.308L263.163 243.309C263.193 243.31 263.241 243.312 263.306 243.313C263.434 243.316 263.629 243.318 263.881 243.314C264.385 243.305 265.119 243.272 266.015 243.172C267.81 242.973 270.239 242.511 272.784 241.461C277.831 239.381 283.385 234.985 285.371 225.539C285.372 225.536 285.373 225.533 285.373 225.531L285.374 225.523L285.378 225.503C285.381 225.487 285.385 225.465 285.389 225.439C285.395 225.406 285.402 225.366 285.409 225.318C285.42 225.255 285.431 225.179 285.444 225.09C285.488 224.78 285.545 224.321 285.59 223.738C285.681 222.572 285.727 220.92 285.544 218.995C285.176 215.14 283.895 210.245 280.276 205.938L280.239 205.895L280.208 205.848C266.298 185.363 255.349 169.385 239.202 146.175C219.686 118.121 196.354 84.2673 177.902 57.4274C168.675 44.0072 160.669 32.3403 154.969 24.0284C152.119 19.8725 149.846 16.5553 148.285 14.2771C147.504 13.1379 146.902 12.2586 146.495 11.6639L146.032 10.9887L145.924 10.8305C138.141 2.59308 129.811 0.369328 122.669 1.56666C115.458 2.77571 109.32 7.49392 106.046 13.3719L3.85189 196.88C-2.37278 208.057 1.89571 227.608 22.5196 232.537L139.67 238.26Z" stroke="url(#paint0_linear_215_2972)" stroke-width="2.20895"/>
<defs>
<linearGradient id="paint0_linear_215_2972" x1="292.08" y1="249.954" x2="116.689" y2="125.59" gradientUnits="userSpaceOnUse">
<stop stop-color="#EFC653"/>
<stop offset="1" stop-color="#897130" stop-opacity="0"/>
</linearGradient>
</defs>
</svg>
