<svg width="20" height="20" viewBox="0 0 20 20" fill="none" xmlns="http://www.w3.org/2000/svg">
<path fill-rule="evenodd" clip-rule="evenodd" d="M9.95397 0.226564H10.0485C10.8653 0.226537 11.5464 0.226515 12.0871 0.299211C12.6579 0.375943 13.1731 0.544734 13.5872 0.958798C14.0013 1.37286 14.17 1.88813 14.2468 2.45886C14.3005 2.85849 14.3145 3.33483 14.3182 3.88595C14.9077 3.90487 15.4333 3.93935 15.9004 4.00214C16.9662 4.14544 17.8289 4.44736 18.5092 5.1277C19.1895 5.80803 19.4915 6.67071 19.6348 7.73654C19.774 8.77219 19.774 10.0955 19.774 11.7662V11.8688C19.774 13.5395 19.774 14.8628 19.6348 15.8984C19.4915 16.9642 19.1895 17.8269 18.5092 18.5073C17.8289 19.1876 16.9662 19.4895 15.9004 19.6328C14.8647 19.772 13.5414 19.772 11.8707 19.772H8.13178C6.46109 19.772 5.13778 19.772 4.10213 19.6328C3.03629 19.4895 2.17361 19.1876 1.49328 18.5073C0.812952 17.8269 0.511028 16.9642 0.367729 15.8984C0.22849 14.8628 0.228502 13.5395 0.228516 11.8688V11.7662C0.228502 10.0955 0.22849 8.77219 0.367729 7.73654C0.511028 6.67071 0.812952 5.80803 1.49328 5.1277C2.17361 4.44736 3.03629 4.14544 4.10213 4.00214C4.5692 3.93935 5.09477 3.90487 5.68433 3.88595C5.68797 3.33483 5.70198 2.85849 5.75571 2.45886C5.83244 1.88813 6.00123 1.37286 6.4153 0.958798C6.82936 0.544734 7.34463 0.375943 7.91535 0.299211C8.45607 0.226515 9.13717 0.226537 9.95397 0.226564ZM7.04834 3.86454C7.39209 3.86292 7.753 3.86293 8.13177 3.86293H11.8707C12.2495 3.86293 12.6104 3.86292 12.9542 3.86454C12.9503 3.34607 12.9376 2.95497 12.8953 2.64056C12.8389 2.22105 12.7414 2.0415 12.623 1.92303C12.5045 1.80456 12.3249 1.70709 11.9054 1.65069C11.4663 1.59165 10.8776 1.5902 10.0012 1.5902C9.12487 1.5902 8.53618 1.59165 8.09706 1.65069C7.67755 1.70709 7.498 1.80456 7.37953 1.92303C7.26106 2.0415 7.16359 2.22105 7.10719 2.64056C7.06491 2.95497 7.05217 3.34607 7.04834 3.86454ZM4.28383 5.35362C3.36921 5.47659 2.84226 5.7072 2.45752 6.09193C2.07278 6.47667 1.84217 7.00362 1.71921 7.91825C1.5936 8.85249 1.59215 10.084 1.59215 11.8175C1.59215 13.5509 1.5936 14.7825 1.71921 15.7167C1.84217 16.6313 2.07278 17.1583 2.45752 17.543C2.84226 17.9278 3.36921 18.1584 4.28383 18.2813C5.21807 18.4069 6.44959 18.4084 8.18306 18.4084H11.8194C13.5529 18.4084 14.7844 18.4069 15.7187 18.2813C16.6333 18.1584 17.1602 17.9278 17.545 17.543C17.9297 17.1583 18.1603 16.6313 18.2833 15.7167C18.4089 14.7825 18.4103 13.5509 18.4103 11.8175C18.4103 10.084 18.4089 8.85249 18.2833 7.91825C18.1603 7.00362 17.9297 6.47667 17.545 6.09193C17.1602 5.7072 16.6333 5.47659 15.7187 5.35362C14.7844 5.22801 13.5529 5.22657 11.8194 5.22657H8.18306C6.44959 5.22657 5.21807 5.22801 4.28383 5.35362ZM10.0012 7.49929C10.3778 7.49929 10.6831 7.80455 10.6831 8.18111V8.19041C11.6729 8.43978 12.5012 9.2202 12.5012 10.3023C12.5012 10.6789 12.196 10.9841 11.8194 10.9841C11.4429 10.9841 11.1376 10.6789 11.1376 10.3023C11.1376 9.9532 10.7505 9.46899 10.0012 9.46899C9.25197 9.46899 8.86488 9.9532 8.86488 10.3023C8.86488 10.6514 9.25197 11.1357 10.0012 11.1357C11.2603 11.1357 12.5012 12.0082 12.5012 13.3326C12.5012 14.4147 11.6729 15.1952 10.6831 15.4445V15.4538C10.6831 15.8304 10.3778 16.1357 10.0012 16.1357C9.62469 16.1357 9.31943 15.8304 9.31943 15.4538V15.4445C8.32962 15.1952 7.50125 14.4147 7.50125 13.3326C7.50125 12.9561 7.80651 12.6508 8.18306 12.6508C8.55962 12.6508 8.86488 12.9561 8.86488 13.3326C8.86488 13.6817 9.25197 14.166 10.0012 14.166C10.7505 14.166 11.1376 13.6817 11.1376 13.3326C11.1376 12.9835 10.7505 12.4993 10.0012 12.4993C8.74221 12.4993 7.50125 11.6268 7.50125 10.3023C7.50125 9.2202 8.32962 8.43978 9.31943 8.19041V8.18111C9.31943 7.80455 9.62469 7.49929 10.0012 7.49929Z" fill="#EFC653"/>
</svg>
