<svg width="20" height="20" viewBox="0 0 20 20" fill="none" xmlns="http://www.w3.org/2000/svg">
<path fill-rule="evenodd" clip-rule="evenodd" d="M10.0012 1.84882C9.9484 1.94032 9.88963 2.04568 9.82038 2.16992L9.731 2.33024C9.72469 2.34156 9.71794 2.35392 9.7107 2.36716C9.6393 2.49772 9.52108 2.71392 9.32394 2.86358C9.12269 3.01635 8.88061 3.06892 8.73906 3.09965C8.72487 3.10273 8.7117 3.10559 8.69968 3.10831L8.52613 3.14758C8.36689 3.18361 8.23716 3.21301 8.12625 3.24089C8.19839 3.3297 8.29211 3.43996 8.414 3.5825L8.53232 3.72086C8.54071 3.73067 8.54984 3.74119 8.55956 3.75238C8.65768 3.86541 8.8161 4.04789 8.88937 4.28348C8.96176 4.51628 8.93679 4.75605 8.92103 4.90731C8.91946 4.9224 8.91798 4.93661 8.9167 4.94984L8.89881 5.13443C8.88223 5.30558 8.86933 5.44218 8.86075 5.55326C8.95548 5.51154 9.06325 5.46196 9.19127 5.40301L9.35377 5.3282C9.36495 5.32305 9.37721 5.31727 9.39046 5.31102C9.52092 5.24949 9.74791 5.14243 10.0012 5.14243C10.2546 5.14243 10.4816 5.24949 10.612 5.31101C10.6253 5.31726 10.6375 5.32304 10.6487 5.3282L10.8112 5.40302C10.9392 5.46196 11.047 5.51154 11.1417 5.55326C11.1332 5.44218 11.1203 5.30558 11.1037 5.13443L11.0858 4.94984C11.0845 4.93661 11.083 4.9224 11.0815 4.90731C11.0657 4.75605 11.0407 4.51628 11.1131 4.28348C11.1864 4.04789 11.3448 3.86541 11.4429 3.75239C11.4527 3.74119 11.4618 3.73067 11.4702 3.72086L11.5885 3.5825C11.7104 3.43996 11.8041 3.3297 11.8762 3.24089C11.7653 3.21301 11.6356 3.18361 11.4764 3.14758L11.3028 3.10831C11.2908 3.10559 11.2776 3.10273 11.2634 3.09965C11.1219 3.06892 10.8798 3.01635 10.6786 2.86358C10.4814 2.71392 10.3632 2.49772 10.2918 2.36716C10.2846 2.35392 10.2778 2.34156 10.2715 2.33024L10.1821 2.16992C10.1129 2.04568 10.0541 1.94032 10.0012 1.84882ZM9.10442 0.726227C9.26094 0.521844 9.54516 0.226562 10.0012 0.226562C10.4573 0.226562 10.7416 0.521843 10.8981 0.726227C11.0475 0.9213 11.1979 1.19133 11.3521 1.46817C11.3591 1.48075 11.3662 1.49335 11.3732 1.50596L11.4626 1.66628C11.4833 1.70347 11.4996 1.73272 11.5139 1.75774C11.5387 1.76357 11.5676 1.77012 11.6037 1.77829L11.7773 1.81756C11.7915 1.82078 11.8057 1.82399 11.8199 1.8272C12.1179 1.89454 12.4141 1.96147 12.6415 2.05106C12.8925 2.14999 13.2328 2.34266 13.3639 2.76439C13.4928 3.17869 13.3302 3.52962 13.1882 3.75517C13.0568 3.96391 12.8571 4.19735 12.6526 4.43633C12.6434 4.44713 12.6341 4.45794 12.6249 4.46876L12.5065 4.60712C12.4752 4.64378 12.4516 4.67143 12.4317 4.69535C12.4344 4.72838 12.4381 4.76686 12.4431 4.81832L12.461 5.00291C12.4623 5.01699 12.4637 5.03106 12.4651 5.0451C12.4961 5.36503 12.5262 5.67421 12.5151 5.92154C12.5036 6.18085 12.4413 6.5734 12.0894 6.8406C11.7263 7.11624 11.3253 7.05616 11.071 6.9833C10.8367 6.91616 10.5598 6.78859 10.281 6.66011C10.2676 6.65396 10.2543 6.64781 10.2409 6.64166L10.0784 6.56684C10.048 6.55284 10.023 6.54135 10.0012 6.53149C9.97947 6.54135 9.95449 6.55284 9.92408 6.56684L9.76159 6.64166C9.74824 6.64781 9.73489 6.65396 9.72154 6.66011C9.44269 6.78859 9.16584 6.91616 8.93152 6.9833C8.67723 7.05616 8.27622 7.11624 7.91312 6.8406C7.56115 6.5734 7.49891 6.18086 7.48736 5.92154C7.47634 5.67422 7.50637 5.36503 7.53744 5.0451C7.5388 5.03106 7.54017 5.01699 7.54153 5.00291L7.55942 4.81832C7.56441 4.76686 7.56812 4.72838 7.57084 4.69535C7.55093 4.67143 7.5273 4.64378 7.49595 4.60712L7.37764 4.46876C7.36838 4.45794 7.35913 4.44713 7.34989 4.43633C7.14542 4.19734 6.94571 3.96391 6.8143 3.75517C6.67231 3.52962 6.50974 3.17869 6.63857 2.76439C6.76972 2.34266 7.10999 2.14999 7.36103 2.05106C7.58838 1.96147 7.88455 1.89454 8.18256 1.8272C8.19677 1.82399 8.21099 1.82078 8.2252 1.81756L8.39875 1.77829C8.43487 1.77012 8.46376 1.76357 8.48861 1.75774C8.50288 1.73272 8.5192 1.70347 8.53993 1.66628L8.6293 1.50596C8.63633 1.49335 8.64335 1.48075 8.65036 1.46817C8.8046 1.19133 8.95504 0.9213 9.10442 0.726227ZM9.04728 7.49929H10.9552C11.5596 7.49926 12.0804 7.49923 12.4975 7.5553C12.9444 7.61539 13.3728 7.75089 13.7203 8.09839C14.0678 8.44589 14.2033 8.87431 14.2634 9.32125C14.3195 9.73829 14.3195 10.2591 14.3194 10.8635L14.3194 13.1061C14.4682 13.0609 14.6218 13.0308 14.7778 13.0098C15.1948 12.9538 15.7156 12.9538 16.32 12.9538H16.4098C17.0142 12.9538 17.535 12.9538 17.952 13.0098C18.399 13.0699 18.8274 13.2054 19.1749 13.5529C19.5224 13.9004 19.6579 14.3289 19.718 14.7758C19.774 15.1928 19.774 15.7136 19.774 16.318V19.0902C19.774 19.4668 19.4687 19.772 19.0922 19.772C18.7156 19.772 18.4103 19.4668 18.4103 19.0902V16.3629C18.4103 15.7008 18.4089 15.2728 18.3665 14.9575C18.3267 14.6618 18.2625 14.5691 18.2106 14.5172C18.1587 14.4653 18.066 14.4011 17.7703 14.3613C17.455 14.3189 17.027 14.3175 16.3649 14.3175C15.7028 14.3175 15.2748 14.3189 14.9595 14.3613C14.6637 14.4011 14.571 14.4653 14.5191 14.5172C14.4672 14.5691 14.403 14.6618 14.3633 14.9575C14.3209 15.2728 14.3194 15.7008 14.3194 16.3629V19.0902C14.3194 19.4668 14.0142 19.772 13.6376 19.772C13.2611 19.772 12.9558 19.4668 12.9558 19.0902L12.9558 16.318C12.9558 16.2883 12.9558 16.2587 12.9558 16.2294V10.9084C12.9558 10.2463 12.9543 9.8183 12.9119 9.50295C12.8722 9.20722 12.808 9.11453 12.7561 9.06263C12.7042 9.01072 12.6115 8.94653 12.3158 8.90677C12.0004 8.86438 11.5724 8.86293 10.9103 8.86293H9.09216C8.43006 8.86293 8.00207 8.86438 7.68673 8.90677C7.391 8.94653 7.2983 9.01072 7.2464 9.06263C7.1945 9.11453 7.13031 9.20722 7.09055 9.50295C7.04815 9.8183 7.0467 10.2463 7.0467 10.9084V18.9567C7.04671 18.986 7.04671 19.0156 7.0467 19.0453L7.0467 19.0902C7.0467 19.4668 6.74144 19.772 6.36488 19.772C5.98833 19.772 5.68306 19.4668 5.68306 19.0902C5.68306 18.4281 5.68162 18.0001 5.63922 17.6848C5.59946 17.389 5.53527 17.2964 5.48337 17.2444C5.43146 17.1925 5.33877 17.1284 5.04304 17.0886C4.72769 17.0462 4.29971 17.0447 3.63761 17.0447C2.97551 17.0447 2.54753 17.0462 2.23218 17.0886C1.93645 17.1284 1.84376 17.1925 1.79186 17.2444C1.73995 17.2964 1.67576 17.389 1.636 17.6848C1.5936 18.0001 1.59216 18.4281 1.59216 19.0902C1.59216 19.4668 1.2869 19.772 0.910337 19.772C0.533779 19.772 0.228519 19.4668 0.228519 19.0902L0.228517 19.0453C0.228483 18.4409 0.228454 17.9201 0.284524 17.5031C0.344614 17.0561 0.480122 16.6277 0.827619 16.2802C1.17512 15.9327 1.60354 15.7972 2.05048 15.7371C2.46752 15.681 2.98831 15.6811 3.59273 15.6811H3.68249C4.28692 15.6811 4.8077 15.681 5.22474 15.7371C5.38065 15.7581 5.53431 15.7882 5.68306 15.8333L5.68306 10.8635C5.68303 10.2591 5.683 9.73829 5.73907 9.32125C5.79916 8.87431 5.93467 8.44589 6.28216 8.09839C6.62966 7.75089 7.05808 7.61539 7.50503 7.5553C7.92207 7.49923 8.44285 7.49926 9.04728 7.49929Z" fill="#EFC653"/>
</svg>
