<svg width="20" height="20" viewBox="0 0 20 20" fill="none" xmlns="http://www.w3.org/2000/svg">
<path fill-rule="evenodd" clip-rule="evenodd" d="M1.09419 2.48755C0.70949 2.10285 0.70949 1.47913 1.09419 1.09443C1.47889 0.709734 2.1026 0.709734 2.4873 1.09443L5.62651 4.23364C6.9032 3.39633 8.38909 2.77607 9.99975 2.77607C12.0491 2.77607 13.8965 3.78022 15.3679 4.95796C16.8472 6.14197 18.0173 7.55781 18.7248 8.50772L18.7302 8.51503C19.0369 8.93904 19.1938 9.4687 19.1938 10C19.1938 10.5313 19.0369 11.0609 18.7302 11.4849L18.7248 11.4923C18.1124 12.3146 17.1533 13.4861 15.9469 14.5541L18.9053 17.5125C19.29 17.8972 19.29 18.5208 18.9053 18.9055C18.5206 19.2902 17.897 19.2902 17.5122 18.9055L1.09419 2.48755ZM12.6672 11.2744C13.1921 10.1758 12.9995 8.82023 12.0896 7.91033C11.1797 7.00043 9.82413 6.8079 8.72561 7.33275L12.6672 11.2744ZM1.27473 8.50772C1.67259 7.97352 2.21675 7.29197 2.87994 6.58715L12.8775 16.5848C11.9821 16.9771 11.0157 17.2239 9.99975 17.2239C7.9504 17.2239 6.10302 16.2198 4.63156 15.042C3.15226 13.858 1.9822 12.4422 1.27473 11.4923L1.26928 11.485C0.962561 11.061 0.805664 10.5313 0.805664 10C0.805664 9.4687 0.962612 8.93908 1.26933 8.51507L1.27473 8.50772Z" fill="white"/>
</svg>
