<svg width="20" height="20" viewBox="0 0 20 20" fill="none" xmlns="http://www.w3.org/2000/svg">
<path d="M7.27401 14.772C6.89745 14.772 6.59219 15.0773 6.59219 15.4538C6.59219 15.8304 6.89745 16.1357 7.27401 16.1357H12.7286C13.1051 16.1357 13.4104 15.8304 13.4104 15.4538C13.4104 15.0773 13.1051 14.772 12.7286 14.772H7.27401Z" fill="#EFC653"/>
<path fill-rule="evenodd" clip-rule="evenodd" d="M10.0013 0.226562C9.35914 0.226562 8.9513 0.680522 8.67704 1.08763C8.39869 1.50081 8.10822 2.0961 7.76384 2.80186L5.70677 7.0171C5.50765 7.42513 5.37956 7.68586 5.26841 7.86676C5.19127 7.99231 5.14913 8.03272 5.13925 8.04129C5.11085 8.05449 5.08436 8.05872 5.05994 8.05699C5.04418 8.04824 5.00001 8.02035 4.91878 7.94524C4.77143 7.809 4.58798 7.60149 4.29705 7.27029L4.27059 7.24017C3.74997 6.64747 3.32469 6.16331 2.97441 5.83586C2.79479 5.66795 2.60601 5.5132 2.4076 5.40229C2.20585 5.28951 1.9525 5.19888 1.66343 5.22427C1.23336 5.26204 0.85175 5.47955 0.584196 5.80281C0.261411 6.1928 0.225082 6.73801 0.228748 7.20933C0.232708 7.71847 0.296311 8.3942 0.375344 9.23385L0.59111 11.5264C0.759283 13.3134 0.890994 14.7129 1.11916 15.8002C1.35161 16.9079 1.70105 17.7844 2.36835 18.467C3.04568 19.1599 3.87793 19.477 4.90646 19.6274C5.89581 19.7721 7.14551 19.772 8.71092 19.772H11.2916C12.857 19.772 14.1067 19.7721 15.0961 19.6274C16.1246 19.477 16.9569 19.1599 17.6342 18.467C18.3015 17.7844 18.6509 16.9079 18.8834 15.8002C19.1116 14.7129 19.2433 13.3134 19.4114 11.5264L19.6272 9.23383C19.7062 8.3942 19.7698 7.71846 19.7738 7.20933C19.7775 6.73801 19.7411 6.1928 19.4184 5.80281C19.1508 5.47955 18.7692 5.26204 18.3391 5.22427C18.0501 5.19888 17.7967 5.28951 17.595 5.40229C17.3965 5.5132 17.2078 5.66795 17.0281 5.83586C16.6779 6.16331 16.2526 6.64747 15.7319 7.24018L15.7055 7.27029C15.4146 7.60149 15.2311 7.809 15.0838 7.94524C15.0025 8.02035 14.9584 8.04824 14.9426 8.05699C14.9182 8.05872 14.8917 8.05449 14.8633 8.04129C14.8534 8.03272 14.8113 7.99231 14.7341 7.86676C14.623 7.68586 14.4949 7.42513 14.2958 7.0171L12.2387 2.80185C11.8943 2.09609 11.6039 1.50081 11.3255 1.08763C11.0512 0.680521 10.6434 0.226562 10.0013 0.226562ZM8.96578 3.44819C9.34006 2.68123 9.58947 2.17388 9.80798 1.84952C9.90053 1.71215 9.96412 1.64346 10.0013 1.61038C10.0384 1.64346 10.102 1.71215 10.1946 1.84952C10.4131 2.17388 10.6625 2.68122 11.0368 3.44818L13.0846 7.64447C13.2652 8.01464 13.4222 8.33627 13.5723 8.58062C13.726 8.83083 13.9287 9.09767 14.2445 9.25659C14.5295 9.39999 14.8505 9.45267 15.1683 9.40245C15.5258 9.34595 15.7971 9.14288 16.0095 8.94648C16.2155 8.75607 16.446 8.49365 16.7074 8.19598L16.73 8.17023C17.2835 7.54015 17.6644 7.10778 17.9594 6.83201C18.1054 6.69553 18.2013 6.62556 18.2603 6.59259L18.2611 6.59214C18.2918 6.60333 18.3275 6.62552 18.3626 6.66612C18.3626 6.66609 18.3627 6.6661 18.3626 6.66612C18.3624 6.66627 18.3628 6.66805 18.364 6.67189C18.3725 6.69899 18.4131 6.82795 18.4102 7.19872C18.4068 7.64173 18.3494 8.25833 18.2663 9.14115L18.0579 11.355C17.8847 13.195 17.7592 14.5174 17.5488 15.5201C17.3408 16.5113 17.0669 17.0966 16.6591 17.5138C16.2613 17.9207 15.7503 18.1536 14.8988 18.2781C14.0194 18.4067 12.8695 18.4084 11.2376 18.4084H8.76498C7.13307 18.4084 5.98316 18.4067 5.10378 18.2781C4.2522 18.1536 3.74124 17.9207 3.34346 17.5138C2.93566 17.0966 2.66172 16.5113 2.45373 15.5201C2.24331 14.5174 2.11781 13.195 1.94464 11.355L1.73628 9.14114C1.65319 8.25833 1.59579 7.64173 1.59234 7.19872C1.58946 6.82801 1.62991 6.69906 1.63842 6.67193C1.63962 6.66808 1.64019 6.66628 1.6399 6.66612C1.67508 6.62552 1.71073 6.60333 1.74144 6.59214L1.74224 6.59259C1.80123 6.62556 1.89719 6.69553 2.04318 6.83201C2.33818 7.10778 2.71907 7.54015 3.27254 8.17023L3.29516 8.19599C3.5566 8.49365 3.7871 8.75608 3.99302 8.94648C4.20543 9.14288 4.47674 9.34595 4.83428 9.40245C5.15203 9.45267 5.47307 9.39999 5.75801 9.25659C6.0738 9.09767 6.27653 8.83083 6.43027 8.58062C6.58039 8.33628 6.73732 8.01467 6.91794 7.64452L8.96578 3.44819ZM18.3626 6.66612C18.3644 6.66813 18.3661 6.67017 18.3679 6.67227C18.3657 6.66964 18.3642 6.66774 18.3634 6.66679C18.363 6.66643 18.3628 6.6662 18.3626 6.66612ZM10.0413 1.58198C10.0413 1.5824 10.0385 1.58414 10.0329 1.5859C10.0386 1.58244 10.0414 1.58155 10.0413 1.58198ZM9.96963 1.5859C9.96408 1.58414 9.96124 1.5824 9.96121 1.58198C9.96118 1.58155 9.96395 1.58244 9.96963 1.5859Z" fill="#EFC653"/>
</svg>
