<svg width="20" height="16" viewBox="0 0 20 16" fill="none" xmlns="http://www.w3.org/2000/svg">
<path fill-rule="evenodd" clip-rule="evenodd" d="M4.63156 2.95801C6.10302 1.78028 7.9504 0.776123 9.99975 0.776123C12.0491 0.776123 13.8965 1.78028 15.3679 2.95801C16.8472 4.14203 18.0173 5.55786 18.7248 6.50777L18.7302 6.51509C19.0369 6.93909 19.1938 7.46875 19.1938 8.00005C19.1938 8.53135 19.0369 9.06097 18.7302 9.48497L18.7248 9.49237C18.0173 10.4423 16.8472 11.8581 15.3679 13.0421C13.8965 14.2199 12.0491 15.224 9.99975 15.224C7.9504 15.224 6.10302 14.2199 4.63156 13.0421C3.15226 11.8581 1.9822 10.4422 1.27473 9.49233L1.26928 9.48501C0.962561 9.06101 0.805664 8.53135 0.805664 8.00005C0.805664 7.46875 0.962612 6.93913 1.26933 6.51513L1.27468 6.50773C1.98215 5.55783 3.15226 4.14203 4.63156 2.95801ZM12.955 8.00005C12.955 9.63219 11.6319 10.9553 9.99975 10.9553C8.36762 10.9553 7.04451 9.63219 7.04451 8.00005C7.04451 6.36792 8.36762 5.04481 9.99975 5.04481C11.6319 5.04481 12.955 6.36792 12.955 8.00005Z" fill="white"/>
</svg>
