<svg width="20" height="20" viewBox="0 0 20 20" fill="none" xmlns="http://www.w3.org/2000/svg">
<path fill-rule="evenodd" clip-rule="evenodd" d="M7.46166 1.98285C7.23245 2.05546 7.00609 2.13799 6.78323 2.2303C5.76299 2.6529 4.83598 3.27231 4.05512 4.05316C3.27426 4.83402 2.65485 5.76103 2.23226 6.78127C1.89688 7.59094 1.69067 8.44674 1.61984 9.31747H5.693C5.7221 8.3212 5.81487 7.33939 5.96903 6.4089C6.15806 5.268 6.43735 4.21669 6.79689 3.31783C6.99319 2.82708 7.21497 2.37785 7.46166 1.98285ZM10.0012 0.226563C8.71787 0.226562 7.44707 0.479341 6.26138 0.970467C5.0757 1.46159 3.99836 2.18145 3.09088 3.08893C2.1834 3.99641 1.46355 5.07375 0.972421 6.25943C0.481295 7.44511 0.228516 8.71592 0.228516 9.99929C0.228516 11.2827 0.481294 12.5535 0.97242 13.7392C1.46355 14.9248 2.1834 16.0022 3.09088 16.9097C3.99836 17.8171 5.0757 18.537 6.26138 19.0281C7.44706 19.5192 8.71787 19.772 10.0012 19.772C11.2846 19.772 12.5554 19.5192 13.7411 19.0281C14.9268 18.537 16.0041 17.8171 16.9116 16.9097C17.8191 16.0022 18.5389 14.9248 19.0301 13.7392C19.5212 12.5535 19.774 11.2827 19.774 9.99929C19.774 8.71592 19.5212 7.44511 19.0301 6.25943C18.5389 5.07375 17.8191 3.99641 16.9116 3.08893C16.0041 2.18145 14.9268 1.46159 13.7411 0.970468C12.5554 0.479342 11.2846 0.226563 10.0012 0.226563ZM10.0012 1.5902C9.76374 1.5902 9.45691 1.70455 9.10013 2.07401C8.74071 2.4462 8.3809 3.02952 8.063 3.82427C7.74721 4.61374 7.49079 5.56678 7.31433 6.6318C7.17276 7.48628 7.08594 8.39304 7.05726 9.31747L12.9452 9.31747C12.9166 8.39304 12.8297 7.48628 12.6882 6.6318C12.5117 5.56678 12.2553 4.61374 11.9395 3.82427C11.6216 3.02953 11.2618 2.44621 10.9024 2.07402C10.5456 1.70455 10.2388 1.5902 10.0012 1.5902ZM14.3095 9.31747C14.2804 8.3212 14.1876 7.33939 14.0335 6.4089C13.8444 5.268 13.5651 4.21669 13.2056 3.31783C13.0093 2.82708 12.7875 2.37785 12.5408 1.98285C12.77 2.05546 12.9964 2.13799 13.2193 2.2303C14.2395 2.6529 15.1665 3.27231 15.9474 4.05317C16.7282 4.83402 17.3476 5.76103 17.7702 6.78127C18.1056 7.59094 18.3118 8.44674 18.3827 9.31747H14.3095ZM12.9452 10.6811L7.05726 10.6811C7.08594 11.6055 7.17276 12.5123 7.31433 13.3668C7.49079 14.4318 7.74721 15.3848 8.063 16.1743C8.3809 16.9691 8.74071 17.5524 9.10013 17.9246C9.45691 18.294 9.76374 18.4084 10.0012 18.4084C10.2388 18.4084 10.5456 18.294 10.9024 17.9246C11.2618 17.5524 11.6216 16.9691 11.9395 16.1743C12.2553 15.3848 12.5117 14.4318 12.6882 13.3668C12.8297 12.5123 12.9166 11.6055 12.9452 10.6811ZM12.5408 18.0157C12.7875 17.6207 13.0093 17.1715 13.2056 16.6808C13.5651 15.7819 13.8444 14.7306 14.0335 13.5897C14.1876 12.6592 14.2804 11.6774 14.3095 10.6811H18.3827C18.3118 11.5518 18.1056 12.4076 17.7702 13.2173C17.3476 14.2375 16.7282 15.1646 15.9474 15.9454C15.1665 16.7263 14.2395 17.3457 13.2193 17.7683C12.9964 17.8606 12.77 17.9431 12.5408 18.0157ZM7.46166 18.0157C7.21497 17.6207 6.99319 17.1715 6.79689 16.6808C6.43735 15.7819 6.15806 14.7306 5.96903 13.5897C5.81487 12.6592 5.7221 11.6774 5.693 10.6811H1.61984C1.69067 11.5518 1.89688 12.4076 2.23226 13.2173C2.65485 14.2375 3.27426 15.1646 4.05512 15.9454C4.83597 16.7263 5.76299 17.3457 6.78322 17.7683C7.00609 17.8606 7.23245 17.9431 7.46166 18.0157Z" fill="#EFC653"/>
</svg>
