<svg width="16" height="16" viewBox="0 0 16 16" fill="none" xmlns="http://www.w3.org/2000/svg">
<path fill-rule="evenodd" clip-rule="evenodd" d="M14.9718 2.75526C15.4488 2.27826 15.4488 1.50491 14.9718 1.02791C14.4949 0.550919 13.7215 0.550919 13.2445 1.02791L7.99977 6.27267L2.75501 1.02791C2.27801 0.550919 1.50466 0.550919 1.02766 1.02791C0.550675 1.50491 0.550675 2.27826 1.02766 2.75526L6.27242 8.00002L1.02766 13.2448C0.550675 13.7217 0.550675 14.4951 1.02766 14.9721C1.50466 15.4491 2.27801 15.4491 2.75501 14.9721L7.99977 9.72736L13.2445 14.9721C13.7215 15.4491 14.4949 15.4491 14.9718 14.9721C15.4488 14.4951 15.4488 13.7217 14.9718 13.2448L9.72711 8.00002L14.9718 2.75526Z" fill="#D43A44"/>
</svg>
