<svg width="22" height="22" viewBox="0 0 22 22" fill="none" xmlns="http://www.w3.org/2000/svg">
<path fill-rule="evenodd" clip-rule="evenodd" d="M5.55276 3.18903C7.08009 1.6617 9.6575 1.7778 10.721 3.68337L11.311 4.74058C12.0055 5.98496 11.7095 7.55503 10.6929 8.5841C10.6793 8.60265 10.6076 8.70713 10.5986 8.88969C10.5872 9.12271 10.67 9.6616 11.5049 10.4965C12.3396 11.3312 12.8784 11.4142 13.1115 11.4028C13.2942 11.3939 13.3988 11.3221 13.4174 11.3086C14.4464 10.2919 16.0165 9.996 17.2609 10.6905L18.3181 11.2805C20.2236 12.3439 20.3398 14.9213 18.8124 16.4487C17.9955 17.2656 16.9092 17.9916 15.6326 18.0399C13.7409 18.1117 10.5997 17.6231 7.48903 14.5124C4.37832 11.4017 3.88978 8.26058 3.9615 6.36882C4.00989 5.09228 4.7358 4.00599 5.55276 3.18903ZM9.53022 4.34791C8.98565 3.37214 7.5223 3.14797 6.517 4.15327C5.81214 4.85813 5.35389 5.63614 5.32416 6.42048C5.26435 7.99807 5.65384 10.7488 8.45327 13.5482C11.2527 16.3476 14.0034 16.7371 15.581 16.6773C16.3653 16.6476 17.1433 16.1893 17.8482 15.4844C18.8535 14.4791 18.6293 13.0158 17.6535 12.4712L16.5963 11.8812C15.9387 11.5142 15.0149 11.6394 14.3665 12.2878L14.3663 12.288C14.3026 12.3517 13.8973 12.7298 13.1778 12.7648C12.4412 12.8007 11.5496 12.4697 10.5407 11.4608C9.5314 10.4515 9.20056 9.55967 9.23663 8.823C9.27186 8.10344 9.65024 7.69835 9.71355 7.63503L9.71358 7.635C10.3621 6.98653 10.4873 6.06277 10.1202 5.40512L9.53022 4.34791Z" fill="#EFC653"/>
</svg>
